<svg width="150" height="56" viewBox="0 0 150 56" fill="none" xmlns="http://www.w3.org/2000/svg">
<path d="M138.077 10.6679L150 0V55.8494L138.077 45.4953V10.6679Z" fill="#A6DA8E"/>
<path d="M62.1716 17.9526V12.2247H89.1586V17.9526H79.0986V45.084H72.2315V17.9526H62.1716Z" fill="#B6F09C"/>
<path d="M34.6758 45.084V12.2247H47.6399C50.1214 12.2247 52.2393 12.6686 53.9935 13.5564C55.7584 14.4335 57.1008 15.6796 58.0207 17.2948C58.9513 18.8992 59.4166 20.7872 59.4166 22.9585C59.4166 25.1406 58.946 27.0178 58.0047 28.5902C57.0634 30.1519 55.6996 31.3498 53.9133 32.1842C52.1377 33.0185 49.9877 33.4356 47.4634 33.4356H38.7833V27.8521H46.3403C47.6666 27.8521 48.7683 27.6703 49.6454 27.3066C50.5225 26.9429 51.175 26.3974 51.6029 25.6701C52.0414 24.9427 52.2607 24.0389 52.2607 22.9585C52.2607 21.8675 52.0414 20.9476 51.6029 20.1989C51.175 19.4501 50.5172 18.8832 49.6294 18.4981C48.7523 18.1024 47.6452 17.9045 46.3082 17.9045H41.6231V45.084H34.6758ZM52.4212 30.1305L60.5878 45.084H52.9185L44.9283 30.1305H52.4212Z" fill="#B6F09C"/>
<path d="M7.44469 45.084H0L11.3435 12.2247H20.2964L31.6239 45.084H24.1792C20.9648 35.184 19.1627 29.6335 15.9483 19.7336H15.6916L7.44469 45.084Z" fill="#B6F09C"/>
<path d="M147.797 13.4293V43.2722L140.849 45.084V12.2247L147.797 13.4293Z" fill="#131619"/>
<path d="M111.614 45.084H104.169L115.512 12.2247H124.465L135.793 45.084H128.348L120.117 19.7336H119.86L111.614 45.084Z" fill="#B6F09C"/>
<path d="M91.1716 35.6712H100.584V45.0841H91.1716V35.6712Z" fill="#B6F09C"/>
</svg>
